<svg width="158.65625px" height="121.40498046875px" xmlns="http://www.w3.org/2000/svg" viewBox="170.671875 14.297509765625001 158.65625 121.40498046875" style="background:#596886" preserveAspectRatio="xMidYMid"><defs><filter id="editing-hover" x="-100%" y="-100%" width="300%" height="300%"><feFlood flood-color="#052b4a" result="flood"></feFlood><feComposite operator="in" in2="SourceAlpha" in="flood" result="shadow"></feComposite><feOffset dx="-4" dy="-4" in="SourceGraphic" result="offset-1"></feOffset><feOffset dx="4" dy="4" in="shadow" result="offset-2"></feOffset><feMerge><feMergeNode in="offset-2"></feMergeNode><feMergeNode in="offset-1"></feMergeNode></feMerge></filter></defs><g filter="url(#editing-hover)"><g transform="translate(200.53093540668488, 97.14499855041504)"><path d="M6.53 0L-0.83 0L10.75-42.24L24.13-42.24L27.07-18.11L38.98-42.24L50.18-42.24L51.33-10.62L51.33-10.62Q51.58-4.35 54.66-2.43L54.66-2.43L54.66-2.43Q53.95-1.15 51.90 0.06L51.90 0.06L51.90 0.06Q49.86 1.28 47.14 1.28L47.14 1.28L47.14 1.28Q44.42 1.28 42.82 0.51L42.82 0.51L42.82 0.51Q41.22-0.26 40.32-1.54L40.32-1.54L40.32-1.54Q38.72-3.84 38.72-8.26L38.72-8.26L38.72-28.03L26.11 0L18.18 0L13.70-28.74L6.53 0ZM98.94-26.56L98.94-26.56L98.94-26.56Q98.94 0.70 69.38 0.70L69.38 0.70L69.38 0.70Q64.64 0.70 56.83-0.45L56.83-0.45L64-38.27L64-38.27Q64.51-40.83 64.83-42.30L64.83-42.30L64.83-42.30Q74.56-43.01 78.88-43.01L78.88-43.01L78.88-43.01Q83.20-43.01 87.17-42.11L87.17-42.11L87.17-42.11Q91.14-41.22 93.76-39.23L93.76-39.23L93.76-39.23Q98.94-35.33 98.94-26.56ZM85.76-28.93L85.76-28.93L85.76-28.93Q85.76-38.46 78.91-38.46L78.91-38.46L78.27-38.46L78.27-38.46Q77.95-38.46 77.63-38.40L77.63-38.40L71.04-4.03L71.04-4.03Q71.30-3.90 71.55-3.90L71.55-3.90L72.06-3.90L72.06-3.90Q74.43-3.90 76.90-5.38L76.90-5.38L76.90-5.38Q79.36-6.85 81.28-9.86L81.28-9.86L81.28-9.86Q85.76-16.83 85.76-28.93Z" fill="#ffd5af"></path></g></g><style>text {
  font-size: 64px;
  font-family: Arial Black;
  dominant-baseline: central;
  text-anchor: middle;
}</style></svg>